<svg width="16" height="17" viewBox="0 0 16 17" fill="none" xmlns="http://www.w3.org/2000/svg">
<path d="M14.1891 5.77007L10.2219 5.19351L8.44844 1.5982C8.4 1.49976 8.32031 1.42007 8.22187 1.37164C7.975 1.24976 7.675 1.35132 7.55156 1.5982L5.77812 5.19351L1.81094 5.77007C1.70156 5.7857 1.60156 5.83726 1.525 5.91539C1.43244 6.01052 1.38143 6.13851 1.38319 6.27123C1.38495 6.40395 1.43933 6.53055 1.53437 6.6232L4.40469 9.42164L3.72656 13.3732C3.71066 13.4651 3.72083 13.5597 3.75592 13.6461C3.79102 13.7325 3.84963 13.8074 3.92511 13.8622C4.00059 13.917 4.08992 13.9496 4.18297 13.9563C4.27602 13.9629 4.36907 13.9433 4.45156 13.8998L8 12.0341L11.5484 13.8998C11.6453 13.9513 11.7578 13.9685 11.8656 13.9498C12.1375 13.9029 12.3203 13.6451 12.2734 13.3732L11.5953 9.42164L14.4656 6.6232C14.5437 6.54664 14.5953 6.44664 14.6109 6.33726C14.6531 6.06382 14.4625 5.8107 14.1891 5.77007Z" fill="#FEA250"/>
</svg>
